<svg width="80" height="80" viewBox="0 0 80 80" fill="none" xmlns="http://www.w3.org/2000/svg">
<path d="M72.9866 34.81C71.8007 34.8083 70.6504 35.2144 69.7285 35.9603C68.8065 36.7061 68.1691 37.7462 67.9231 38.9063H60.9933C60.7417 34.0626 58.8147 29.4569 55.542 25.8772L60.4555 20.9724C61.5135 21.6727 62.7931 21.9572 64.0482 21.7711C65.3033 21.5849 66.4453 20.9413 67.2545 19.9641C68.0637 18.9868 68.483 17.7448 68.4318 16.477C68.3806 15.2092 67.8625 14.0051 66.9771 13.0963C66.0917 12.1874 64.9016 11.638 63.6356 11.5537C62.3695 11.4694 61.117 11.8561 60.1189 12.6395C59.1208 13.4229 58.4476 14.5477 58.2287 15.7975C58.0099 17.0473 58.2608 18.3339 58.9333 19.4099L53.9869 24.3563C50.3827 21.1278 45.7715 19.2473 40.9375 19.0347V12.0997C42.1924 11.8679 43.3173 11.1802 44.0957 10.169C44.8741 9.15775 45.2511 7.89438 45.1542 6.62193C45.0572 5.34947 44.4931 4.15781 43.5705 3.27619C42.6478 2.39458 41.4317 1.88528 40.1562 1.84629C38.8806 1.80729 37.6357 2.24135 36.6609 3.06496C35.6861 3.88857 35.0503 5.04354 34.8758 6.3077C34.7013 7.57186 35.0004 8.8559 35.7156 9.9128C36.4308 10.9697 37.5116 11.7248 38.75 12.0328V19.051C33.9615 19.333 29.4149 21.2504 25.8705 24.4825L20.9608 19.573C21.6752 18.516 21.9734 17.2321 21.7983 15.9684C21.6231 14.7047 20.9867 13.5504 20.0117 12.7276C19.0367 11.9048 17.7919 11.4716 16.5167 11.5113C15.2416 11.551 14.0261 12.0609 13.1042 12.9428C12.1823 13.8247 11.6191 15.0163 11.5229 16.2885C11.4267 17.5607 11.8043 18.8235 12.5831 19.834C13.3619 20.8445 14.4868 21.5313 15.7415 21.7624C16.9962 21.9934 18.292 21.7523 19.3797 21.0855L24.3309 26.0197C21.0976 29.6191 19.2135 34.2289 19 39.0625H12.1058C11.8778 37.8751 11.2462 36.803 10.3181 36.028C9.39001 35.253 8.22251 34.8227 7.01344 34.81C6.33203 34.8063 5.65659 34.9373 5.02596 35.1954C4.39533 35.4536 3.82195 35.8339 3.33879 36.3144C2.85562 36.7949 2.4722 37.3662 2.21057 37.9954C1.94893 38.6246 1.81424 39.2993 1.81424 39.9807C1.81424 40.6622 1.94893 41.3369 2.21057 41.9661C2.4722 42.5953 2.85562 43.1665 3.33879 43.6471C3.82195 44.1276 4.39533 44.5079 5.02596 44.766C5.65659 45.0242 6.33203 45.1552 7.01344 45.1514C8.16804 45.1685 9.2939 44.7911 10.2051 44.0818C11.1162 43.3725 11.7582 42.3735 12.0248 41.25H19.0166C19.2844 46.035 21.1948 50.5811 24.4253 54.1211L19.5445 59.0105C18.4769 58.2926 17.1814 57.995 15.9075 58.1751C14.6336 58.3551 13.4713 59 12.6445 59.9857C11.8176 60.9713 11.3845 62.228 11.4287 63.5138C11.4729 64.7996 11.9912 66.0236 12.8837 66.9502C13.7763 67.8768 14.9801 68.4404 16.2634 68.5326C17.5466 68.6247 18.8186 68.239 19.8345 67.4495C20.8503 66.66 21.5382 65.5226 21.7657 64.2563C21.9932 62.9901 21.7442 61.6844 21.0667 60.5907L25.9767 55.6807C29.546 58.8928 34.1108 60.7806 38.9062 61.0277V67.9311C37.6584 68.2011 36.5545 68.9229 35.8069 69.9578C35.0593 70.9927 34.7208 72.2675 34.8565 73.537C34.9923 74.8064 35.5927 75.9808 36.5422 76.8343C37.4917 77.6877 38.7233 78.1598 40 78.1598C41.2767 78.1598 42.5083 77.6877 43.4578 76.8343C44.4074 75.9808 45.0077 74.8064 45.1435 73.537C45.2792 72.2675 44.9407 70.9927 44.1931 69.9578C43.4455 68.9229 42.3416 68.2011 41.0938 67.9311V61.0277C45.9312 60.7786 50.5327 58.8603 54.1145 55.5996L59 60.4852C58.2986 61.5526 58.0167 62.8416 58.2086 64.1043C58.4005 65.367 59.0525 66.5141 60.0393 67.325C61.0261 68.1358 62.2778 68.5531 63.5538 68.4965C64.8297 68.4399 66.0396 67.9135 66.9508 67.0185C67.8619 66.1235 68.4099 64.9232 68.4893 63.6485C68.5686 62.3738 68.1738 61.1147 67.3807 60.1136C66.5876 59.1125 65.4523 58.4401 64.1933 58.2257C62.9342 58.0113 61.6404 58.27 60.5606 58.9522L55.6562 54.0297C58.8714 50.4607 60.7565 45.8916 60.9933 41.0938H67.9391C68.1489 42.046 68.6238 42.9195 69.3088 43.6134C69.9938 44.3073 70.8611 44.7934 71.8105 45.0156C72.7599 45.2378 73.7528 45.1869 74.6746 44.869C75.5964 44.5511 76.4095 43.979 77.0201 43.2187C77.6307 42.4585 78.0139 41.5411 78.1255 40.5724C78.237 39.6038 78.0724 38.6233 77.6507 37.7442C77.2289 36.865 76.5671 36.1231 75.7417 35.6039C74.9164 35.0847 73.961 34.8095 72.9859 34.81H72.9866ZM61.2141 14.5642C61.7739 14.0044 62.5332 13.6899 63.3249 13.6898C64.1166 13.6898 64.8759 14.0043 65.4358 14.5641C65.9956 15.1239 66.3102 15.8832 66.3102 16.6749C66.3102 17.4666 65.9958 18.226 65.4359 18.7858C65.1593 19.0657 64.8301 19.2881 64.4672 19.4403C64.1043 19.5925 63.7149 19.6715 63.3214 19.6726C62.9279 19.6738 62.5381 19.5971 62.1743 19.4471C61.8105 19.297 61.48 19.0765 61.2017 18.7983C60.9235 18.5201 60.703 18.1895 60.5529 17.8258C60.4028 17.462 60.3262 17.0721 60.3273 16.6786C60.3285 16.2851 60.4074 15.8957 60.5596 15.5328C60.7118 15.1699 60.9342 14.8407 61.2141 14.5641V14.5642ZM18.7859 18.7858C18.3685 19.2034 17.8365 19.4877 17.2574 19.6029C16.6783 19.7182 16.078 19.6591 15.5325 19.4331C14.987 19.2072 14.5207 18.8246 14.1927 18.3336C13.8646 17.8427 13.6895 17.2655 13.6895 16.675C13.6895 16.0846 13.8646 15.5074 14.1927 15.0164C14.5207 14.5255 14.987 14.1429 15.5325 13.9169C16.078 13.691 16.6783 13.6319 17.2574 13.7471C17.8365 13.8623 18.3685 14.1467 18.7859 14.5642C19.0632 14.8414 19.2832 15.1705 19.4332 15.5326C19.5833 15.8948 19.6606 16.283 19.6606 16.675C19.6606 17.0671 19.5833 17.4553 19.4332 17.8174C19.2832 18.1796 19.0632 18.5087 18.7859 18.7858ZM7.01344 42.9853C6.42301 42.9853 5.84585 42.8102 5.35494 42.4821C4.86402 42.1541 4.48141 41.6878 4.25549 41.1424C4.02956 40.5969 3.97046 39.9966 4.08567 39.4175C4.20088 38.8384 4.48521 38.3065 4.90272 37.889C5.32023 37.4716 5.85216 37.1872 6.43125 37.0721C7.01034 36.9569 7.61058 37.016 8.15606 37.242C8.70155 37.4679 9.16778 37.8506 9.49581 38.3415C9.82383 38.8324 9.99891 39.4096 9.99891 40C9.998 40.7915 9.68317 41.5504 9.12347 42.11C8.56378 42.6697 7.80495 42.9845 7.01344 42.9853ZM18.7859 65.4358C18.5088 65.713 18.1797 65.9329 17.8175 66.083C17.4553 66.233 17.0671 66.3102 16.6751 66.3102C16.2831 66.3102 15.8949 66.233 15.5327 66.083C15.1705 65.933 14.8414 65.7132 14.5642 65.436C14.287 65.1588 14.0671 64.8297 13.9171 64.4675C13.767 64.1053 13.6898 63.7172 13.6898 63.3251C13.6898 62.9331 13.767 62.5449 13.917 62.1827C14.067 61.8206 14.2869 61.4915 14.5641 61.2142C15.1043 60.673 15.832 60.3603 16.5965 60.3409C17.361 60.3214 18.1037 60.5967 18.6708 61.1097C18.7496 61.2336 18.8531 61.34 18.9747 61.4222C19.4486 61.9946 19.6919 62.7233 19.657 63.4656C19.6221 64.2079 19.3115 64.9105 18.7859 65.436V65.4358ZM61.2141 61.2142C61.6315 60.7967 62.1635 60.5123 62.7426 60.3971C63.3217 60.2819 63.922 60.341 64.4675 60.5669C65.013 60.7929 65.4793 61.1755 65.8073 61.6664C66.1354 62.1574 66.3105 62.7346 66.3105 63.325C66.3105 63.9155 66.1354 64.4927 65.8073 64.9836C65.4793 65.4746 65.013 65.8572 64.4675 66.0831C63.922 66.3091 63.3217 66.3682 62.7426 66.2529C62.1635 66.1377 61.6315 65.8534 61.2141 65.4358C60.9368 65.1587 60.7168 64.8296 60.5668 64.4674C60.4167 64.1053 60.3394 63.7171 60.3394 63.325C60.3394 62.933 60.4167 62.5448 60.5668 62.1826C60.7168 61.8205 60.9368 61.4914 61.2141 61.2142ZM37.0147 7.01362C37.0147 6.42319 37.1898 5.84601 37.5178 5.35507C37.8458 4.86414 38.3121 4.48151 38.8576 4.25556C39.4031 4.0296 40.0033 3.97048 40.5824 4.08567C41.1615 4.20086 41.6934 4.48519 42.1109 4.90269C42.5284 5.32019 42.8128 5.85212 42.928 6.43122C43.0431 7.01031 42.984 7.61056 42.7581 8.15605C42.5321 8.70155 42.1495 9.16779 41.6586 9.49582C41.1676 9.82385 40.5904 9.99894 40 9.99894C39.2085 9.99799 38.4498 9.68316 37.8901 9.12351C37.3305 8.56386 37.0156 7.80509 37.0147 7.01362ZM42.9853 72.9864C42.9859 73.5676 42.8168 74.1364 42.4988 74.6228C42.1808 75.1093 41.7277 75.4924 41.1951 75.7251C40.6625 75.9577 40.0736 76.0299 39.5006 75.9327C38.9276 75.8354 38.3954 75.5731 37.9694 75.1777C37.5433 74.7824 37.242 74.2713 37.1022 73.7071C36.9625 73.143 36.9905 72.5503 37.1828 72.0018C37.375 71.4534 37.7232 70.9729 38.1846 70.6195C38.646 70.2661 39.2005 70.055 39.7802 70.0122C39.9252 70.0418 40.0748 70.0418 40.2198 70.0122C40.9708 70.0681 41.673 70.4056 42.1858 70.9571C42.6985 71.5086 42.9841 72.2334 42.9853 72.9864ZM40 58.8685C36.275 58.8685 32.6336 57.7639 29.5364 55.6944C26.4391 53.6248 24.0251 50.6834 22.5996 47.2419C21.1741 43.8004 20.8011 40.0135 21.5278 36.3601C22.2545 32.7066 24.0483 29.3507 26.6823 26.7167C29.3163 24.0827 32.6722 22.289 36.3257 21.5622C39.9791 20.8355 43.766 21.2085 47.2075 22.634C50.649 24.0595 53.5904 26.4735 55.66 29.5708C57.7295 32.668 58.8341 36.3094 58.8341 40.0344C58.8284 45.0278 56.8423 49.815 53.3115 53.3459C49.7806 56.8767 44.9934 58.8628 40 58.8685ZM72.9866 42.9853C72.3961 42.9853 71.8189 42.8103 71.328 42.4822C70.8371 42.1542 70.4544 41.688 70.2285 41.1425C70.0025 40.597 69.9434 39.9967 70.0586 39.4176C70.1738 38.8385 70.4581 38.3066 70.8756 37.8891C71.2931 37.4716 71.8251 37.1873 72.4042 37.0721C72.9832 36.9569 73.5835 37.016 74.129 37.242C74.6745 37.4679 75.1407 37.8505 75.4688 38.3415C75.7968 38.8324 75.9719 39.4096 75.9719 40C75.971 40.7915 75.6561 41.5503 75.0965 42.11C74.5368 42.6696 73.778 42.9844 72.9866 42.9853Z" fill="white"/>
<path d="M53.0469 31.8358L40.5469 24.6191C40.3806 24.5231 40.192 24.4725 40 24.4725C39.808 24.4725 39.6194 24.5231 39.4531 24.6191L26.9531 31.8358C26.7868 31.9318 26.6488 32.0699 26.5528 32.2362C26.4568 32.4025 26.4062 32.5911 26.4063 32.7831V47.2169C26.4062 47.4089 26.4568 47.5975 26.5528 47.7638C26.6488 47.9301 26.7868 48.0682 26.9531 48.1642L39.4531 55.3809C39.6194 55.4769 39.808 55.5275 40 55.5275C40.192 55.5275 40.3806 55.4769 40.5469 55.3809L53.0469 48.1642C53.2132 48.0682 53.3512 47.9301 53.4472 47.7638C53.5432 47.5975 53.5938 47.4089 53.5938 47.2169V32.7831C53.5938 32.5911 53.5432 32.4025 53.4472 32.2362C53.3512 32.0699 53.2132 31.9318 53.0469 31.8358ZM40 26.8292L43.9391 29.1033L33.6273 35.0564L29.6883 32.7822L40 26.8292ZM38.9062 52.5394L28.5938 46.5855V34.6766L38.9062 40.6306V52.5394ZM40 38.7361L35.8148 36.3199L46.1266 30.3667L50.3125 32.7825L40 38.7361ZM51.4062 46.5855L41.0938 52.5394V40.6306L51.4062 34.6766V46.5855Z" fill="white"/>
</svg>
