<svg width="80" height="80" viewBox="0 0 80 80" fill="none" xmlns="http://www.w3.org/2000/svg">
<path d="M51.858 70.7346L37.9104 63.2243L39.9258 59.1934C40.3337 58.3777 40.4697 57.4529 40.3139 56.5543C40.158 55.6557 39.7186 54.8306 39.0598 54.1999C38.4011 53.5692 37.5577 53.1659 36.6532 53.0493C35.7488 52.9326 34.8307 53.1086 34.0334 53.5515L24.6761 58.75H8.75V61.25H23.75V75H8.75V77.5H50.1523C50.9534 77.5 51.7316 77.2326 52.3635 76.7402C52.9955 76.2478 53.445 75.5586 53.6408 74.7818C53.8367 74.005 53.7677 73.185 53.4447 72.4519C53.1217 71.7188 52.5633 71.1144 51.858 70.7346ZM50.1523 75H26.25V60.7355L35.2476 55.7368C35.578 55.5533 35.9585 55.4803 36.3334 55.5287C36.7083 55.577 37.0578 55.7442 37.3309 56.0056C37.6039 56.267 37.786 56.609 37.8506 56.9814C37.9152 57.3538 37.8589 57.7372 37.6898 58.0753L35.132 63.1909C34.9866 63.4816 34.9602 63.8174 35.0583 64.1273C35.1563 64.4371 35.3712 64.6965 35.6573 64.8506L50.6726 72.9357C50.8878 73.0515 51.0582 73.2359 51.1568 73.4596C51.2554 73.6833 51.2764 73.9335 51.2167 74.1705C51.1569 74.4076 51.0198 74.6179 50.827 74.7681C50.6342 74.9184 50.3967 75 50.1523 75Z" fill="white"/>
<path d="M55.5177 18.75L56.0983 18.1694C57.3392 16.9354 58.323 15.4674 58.9927 13.8506C59.6625 12.2337 60.0048 10.5001 60 8.75003C60 8.41851 59.8683 8.10057 59.6339 7.86615C59.3995 7.63173 59.0815 7.50003 58.75 7.50003H55.7726L54.5451 5.04504C54.165 4.27844 53.5777 3.63366 52.8499 3.18383C52.122 2.734 51.2827 2.49711 50.427 2.50003C49.7126 2.50175 49.0082 2.66893 48.3692 2.98846C47.7302 3.308 47.1738 3.7712 46.7438 4.34176L45.5468 5.93768C45.3205 6.23924 44.9873 6.44273 44.6156 6.50638C44.244 6.57002 43.8621 6.489 43.5483 6.27993L41.9434 5.20999C41.785 5.10448 41.6046 5.0365 41.416 5.01122C41.2273 4.98594 41.0354 5.00403 40.8548 5.06411L39.1886 5.61938C38.3325 5.90397 37.5878 6.45108 37.0602 7.183C36.5327 7.91493 36.2492 8.79447 36.25 9.69668C36.2405 12.9938 37.3993 16.1876 39.5207 18.7116L29.9372 28.295C27.572 30.6474 25.6968 33.4456 24.4202 36.5276C23.1436 39.6096 22.4909 42.9141 22.5 46.25C22.4949 49.4036 23.0894 52.5293 24.2519 55.4608L26.5758 54.5392C25.5299 51.901 24.9952 49.088 25 46.25C24.9918 43.2426 25.5802 40.2634 26.7311 37.4849C27.882 34.7063 29.5726 32.1837 31.705 30.0629L41.7678 20H44.4822L44.3305 20.1517C43.7484 20.7307 43.2868 21.4195 42.9726 22.1781C42.6584 22.9366 42.4978 23.75 42.5 24.5711V27.5H45V24.5711C44.9987 24.0784 45.0951 23.5904 45.2836 23.1353C45.4721 22.6801 45.7491 22.2669 46.0983 21.9194L47.5 20.5178L48.9016 21.9193C49.2509 22.2667 49.5279 22.68 49.7164 23.1352C49.9049 23.5904 50.0013 24.0784 50 24.5711V27.5H52.5V24.5711C52.5022 23.75 52.3416 22.9366 52.0274 22.178C51.7131 21.4194 51.2516 20.7306 50.6694 20.1515L50.5179 20H53.2322L63.2951 30.0629C65.4275 32.1837 67.118 34.7063 68.2689 37.4849C69.4198 40.2634 70.0082 43.2426 70 46.25C70.0061 50.9764 68.5216 55.5843 65.7578 59.4183C62.994 63.2524 59.0915 66.1172 54.6056 67.6055L55.3945 69.9776C60.3789 68.3242 64.715 65.1412 67.786 60.8813C70.8571 56.6214 72.5066 51.5015 72.5 46.25C72.5091 42.9141 71.8565 39.6096 70.5799 36.5276C69.3033 33.4456 67.4281 30.6474 65.0628 28.295L55.5177 18.75ZM53.2323 17.5H41.7852C39.8263 15.3743 38.7422 12.5873 38.75 9.69668C38.7497 9.3193 38.8682 8.9514 39.0889 8.64524C39.3096 8.33909 39.6211 8.11024 39.9792 7.99121L41.0653 7.62912L42.1616 8.36002C43.0071 8.92342 44.0362 9.14177 45.0377 8.97024C46.0392 8.79871 46.937 8.25031 47.5468 7.43763L48.7438 5.8417C48.9403 5.58096 49.1945 5.36928 49.4866 5.22325C49.7786 5.07722 50.1005 5.00082 50.427 5.00003C50.8181 4.9987 51.2017 5.10697 51.5343 5.31257C51.867 5.51816 52.1354 5.81284 52.3091 6.1632L53.882 9.30911C53.9858 9.51673 54.1454 9.69134 54.3429 9.81337C54.5403 9.9354 54.7679 10 55 10H57.4291C57.1534 12.4239 56.0606 14.6817 54.3305 16.4017L53.2323 17.5Z" fill="white"/>
<path d="M63.75 46.2501C63.7482 43.8846 63.23 41.548 62.2316 39.4035C61.2332 37.2591 59.7786 35.3585 57.9695 33.8344C56.1604 32.3104 54.0403 31.1997 51.7575 30.58C49.4746 29.9602 47.084 29.8463 44.7525 30.2463C42.4211 30.6462 40.2051 31.5504 38.2593 32.8955C36.3135 34.2407 34.6849 35.9944 33.4871 38.0343C32.2894 40.0741 31.5514 42.3509 31.3248 44.7055C31.0981 47.0601 31.3883 49.4358 32.175 51.6666L34.5321 50.8335C33.496 47.8962 33.4889 44.6939 34.5121 41.7521C35.5353 38.8103 37.5279 36.3035 40.1631 34.6431C42.7983 32.9826 45.9196 32.2671 49.0149 32.6138C52.1102 32.9606 54.9958 34.3491 57.1982 36.5515C59.4007 38.7539 60.7892 41.6394 61.136 44.7348C61.4829 47.8301 60.7674 50.9514 59.107 53.5866C57.4466 56.2218 54.9399 58.2145 51.998 59.2377C49.0562 60.261 45.854 60.254 42.9166 59.2179L42.0834 61.5751C44.5347 62.4392 47.1575 62.7032 49.7319 62.3447C52.3063 61.9863 54.7572 61.0159 56.8793 59.5149C59.0013 58.014 60.7327 56.0262 61.9281 53.7182C63.1236 51.4102 63.7483 48.8493 63.75 46.2501Z" fill="white"/>
<path d="M44.3931 42.072L43.1069 39.9281L40.6069 41.4281C40.4218 41.5391 40.2686 41.6962 40.1623 41.8841C40.0559 42.0719 40 42.2841 40 42.5V50C40 50.2159 40.0559 50.428 40.1622 50.6159C40.2686 50.8037 40.4218 50.9608 40.6068 51.0719L46.8568 54.8219C47.0511 54.9385 47.2734 55 47.5 55C47.7266 55 47.9489 54.9385 48.1432 54.8219L54.3932 51.0719C54.5782 50.9608 54.7314 50.8037 54.8378 50.6159C54.9441 50.428 55 50.2159 55 50L54.9999 42.4998C54.9999 42.284 54.944 42.0718 54.8377 41.8839C54.7313 41.6961 54.5781 41.539 54.393 41.4279L48.1431 37.6781C47.9488 37.5615 47.7265 37.5 47.5 37.5C47.2735 37.5 47.0512 37.5615 46.8569 37.6781L44.7736 38.9281L46.0597 41.0719L47.5 40.2077L52.4999 43.2076L52.5 49.2923L47.5 52.2923L42.5 49.2923V43.2077L44.3931 42.072Z" fill="white"/>
</svg>
