<svg width="78" height="68" viewBox="0 0 78 68" fill="none" xmlns="http://www.w3.org/2000/svg">
<path fill-rule="evenodd" clip-rule="evenodd" d="M0.666687 8.52388C0.666687 4.21802 4.09315 0.666748 8.39395 0.666748H62.9394C67.2404 0.666748 70.6667 4.21802 70.6667 8.52388V25.6667C70.6667 26.5871 69.9203 27.3334 69 27.3334C68.0797 27.3334 67.3334 26.5871 67.3334 25.6667V8.52388C67.3334 5.99198 65.333 4.00008 62.9394 4.00008H8.39395C6.00039 4.00008 4.00002 5.99198 4.00002 8.52388V39.4764C4.00002 42.0081 6.00039 44.0001 8.39395 44.0001H32.3334C33.2537 44.0001 34 44.7464 34 45.6668C34 46.5871 33.2537 47.3334 32.3334 47.3334H8.39395C4.09315 47.3334 0.666687 43.7821 0.666687 39.4764V8.52388Z" fill="white"/>
<path fill-rule="evenodd" clip-rule="evenodd" d="M0.666687 12.3334C0.666687 11.4129 1.41288 10.6667 2.33335 10.6667H69C69.9203 10.6667 70.6667 11.4129 70.6667 12.3334C70.6667 13.2539 69.9203 14.0001 69 14.0001H2.33335C1.41288 14.0001 0.666687 13.2539 0.666687 12.3334Z" fill="white"/>
<path fill-rule="evenodd" clip-rule="evenodd" d="M7.33337 29.0002C7.33337 28.0798 8.07957 27.3335 9.00004 27.3335H15.6667C16.5872 27.3335 17.3334 28.0798 17.3334 29.0002C17.3334 29.9205 16.5872 30.6668 15.6667 30.6668H9.00004C8.07957 30.6668 7.33337 29.9205 7.33337 29.0002Z" fill="white"/>
<path fill-rule="evenodd" clip-rule="evenodd" d="M7.33337 37.3334C7.33337 36.4131 8.07957 35.6667 9.00004 35.6667H22.3334C23.2538 35.6667 24 36.4131 24 37.3334C24 38.2537 23.2538 39.0001 22.3334 39.0001H9.00004C8.07957 39.0001 7.33337 38.2537 7.33337 37.3334Z" fill="white"/>
<path fill-rule="evenodd" clip-rule="evenodd" d="M59 34.0001C50.7157 34.0001 44 40.7157 44 49.0001C44 57.2844 50.7157 64.0001 59 64.0001C67.2844 64.0001 74 57.2844 74 49.0001C74 40.7157 67.2844 34.0001 59 34.0001ZM40.6667 49.0001C40.6667 38.8747 48.8747 30.6667 59 30.6667C69.1254 30.6667 77.3334 38.8747 77.3334 49.0001C77.3334 59.1254 69.1254 67.3334 59 67.3334C48.8747 67.3334 40.6667 59.1254 40.6667 49.0001Z" fill="white"/>
<path fill-rule="evenodd" clip-rule="evenodd" d="M64.488 46.1547C65.139 45.5041 66.1944 45.5041 66.8454 46.1547C67.496 46.8057 67.496 47.8611 66.8454 48.5121L60.1787 55.1788C59.5277 55.8294 58.4724 55.8294 57.8214 55.1788L52.8214 50.1787C52.1707 49.5277 52.1707 48.4724 52.8214 47.8214C53.4724 47.1707 54.5277 47.1707 55.1787 47.8214L59 51.6431L64.488 46.1547Z" fill="white"/>
</svg>
