<svg width="80" height="80" viewBox="0 0 80 80" fill="none" xmlns="http://www.w3.org/2000/svg">
<path d="M48.6125 40.3875C49.0994 39.9965 49.4798 39.489 49.7185 38.912C49.9571 38.3349 50.0463 37.7069 49.9777 37.0863C49.9092 36.4656 49.6851 35.8722 49.3263 35.3611C48.9675 34.8501 48.4855 34.4378 47.925 34.1625L49.9625 26.575C50.013 26.3754 50.0144 26.1664 49.9665 25.9662C49.9186 25.7659 49.8229 25.5802 49.6875 25.425C49.5508 25.2695 49.3775 25.1503 49.1833 25.0783C48.9891 25.0063 48.7801 24.9837 48.575 25.0125L40 26.2375L31.425 25.0125C31.2199 24.9837 31.0109 25.0063 30.8167 25.0783C30.6225 25.1503 30.4492 25.2695 30.3125 25.425C30.1771 25.5802 30.0814 25.7659 30.0335 25.9662C29.9856 26.1664 29.987 26.3754 30.0375 26.575L32.075 34.1625C31.5145 34.4378 31.0325 34.8501 30.6737 35.3611C30.3149 35.8722 30.0908 36.4656 30.0223 37.0863C29.9537 37.7069 30.0429 38.3349 30.2815 38.912C30.5202 39.489 30.9006 39.9965 31.3875 40.3875C26.3625 45.1875 22.5 53.5125 22.5 60V65C22.5 71.775 27.65 77.5 33.75 77.5H46.25C52.35 77.5 57.5 71.775 57.5 65V60C57.5 53.5125 53.6375 45.1875 48.6125 40.3875ZM39.825 28.7375C39.9413 28.75 40.0587 28.75 40.175 28.7375L47.05 27.75L45.4375 33.75H34.5625L32.95 27.75L39.825 28.7375ZM33.75 36.25H46.25C46.5815 36.25 46.8995 36.3817 47.1339 36.6161C47.3683 36.8505 47.5 37.1685 47.5 37.5C47.5 37.8315 47.3683 38.1495 47.1339 38.3839C46.8995 38.6183 46.5815 38.75 46.25 38.75H33.75C33.4185 38.75 33.1005 38.6183 32.8661 38.3839C32.6317 38.1495 32.5 37.8315 32.5 37.5C32.5 37.1685 32.6317 36.8505 32.8661 36.6161C33.1005 36.3817 33.4185 36.25 33.75 36.25ZM55 65C55 70.325 50.9125 75 46.25 75H33.75C29.0875 75 25 70.325 25 65V60C25 53.75 29.1875 45.2875 34.2 41.25H45.8C50.8125 45.2875 55 53.75 55 60V65Z" fill="white"/>
<path d="M41.25 56.25H38.75C37.7554 56.25 36.8016 55.8549 36.0983 55.1516C35.3951 54.4484 35 53.4946 35 52.5C35 51.5054 35.3951 50.5516 36.0983 49.8484C36.8016 49.1451 37.7554 48.75 38.75 48.75H46.25V46.25H41.25V43.75H38.75V46.25C37.0924 46.25 35.5027 46.9085 34.3306 48.0806C33.1585 49.2527 32.5 50.8424 32.5 52.5C32.5 54.1576 33.1585 55.7473 34.3306 56.9194C35.5027 58.0915 37.0924 58.75 38.75 58.75H41.25C42.2446 58.75 43.1984 59.1451 43.9016 59.8484C44.6049 60.5516 45 61.5054 45 62.5C45 63.4946 44.6049 64.4484 43.9016 65.1516C43.1984 65.8549 42.2446 66.25 41.25 66.25H33.75V68.75H38.75V71.25H41.25V68.75C42.9076 68.75 44.4973 68.0915 45.6694 66.9194C46.8415 65.7473 47.5 64.1576 47.5 62.5C47.5 60.8424 46.8415 59.2527 45.6694 58.0806C44.4973 56.9085 42.9076 56.25 41.25 56.25Z" fill="white"/>
<path d="M32.5 12.5H35V21.25C35 21.5815 35.1317 21.8994 35.3661 22.1339C35.6005 22.3683 35.9185 22.5 36.25 22.5H43.75C44.0815 22.5 44.3995 22.3683 44.6339 22.1339C44.8683 21.8994 45 21.5815 45 21.25V12.5H47.5C47.7472 12.4999 47.9888 12.4266 48.1943 12.2892C48.3998 12.1519 48.56 11.9567 48.6546 11.7283C48.7492 11.4999 48.774 11.2486 48.7257 11.0062C48.6775 10.7637 48.5585 10.541 48.3838 10.3662L40.8838 2.86623C40.6494 2.63189 40.3315 2.50024 40 2.50024C39.6686 2.50024 39.3507 2.63189 39.1163 2.86623L31.6163 10.3662C31.4415 10.541 31.3225 10.7637 31.2743 11.0062C31.2261 11.2486 31.2508 11.4999 31.3454 11.7283C31.44 11.9567 31.6002 12.1519 31.8057 12.2892C32.0112 12.4266 32.2528 12.4999 32.5 12.5ZM40 5.51748L44.4825 9.99998H43.75C43.4185 9.99998 43.1005 10.1317 42.8661 10.3661C42.6317 10.6005 42.5 10.9185 42.5 11.25V20H37.5V11.25C37.5 10.9185 37.3683 10.6005 37.1339 10.3661C36.8995 10.1317 36.5815 9.99998 36.25 9.99998H35.5175L40 5.51748Z" fill="white"/>
<path d="M29.6625 22.5875L23.475 16.4L25.2375 14.6375C25.413 14.4634 25.533 14.2412 25.5822 13.9989C25.6315 13.7566 25.6077 13.5052 25.5141 13.2764C25.4204 13.0476 25.261 12.8518 25.0561 12.7136C24.8511 12.5754 24.6097 12.501 24.3625 12.5H13.75C13.4185 12.5 13.1005 12.6317 12.8661 12.8661C12.6317 13.1005 12.5 13.4185 12.5 13.75V24.3625C12.501 24.6097 12.5754 24.8511 12.7136 25.0561C12.8518 25.261 13.0476 25.4204 13.2764 25.5141C13.5052 25.6077 13.7566 25.6315 13.9989 25.5822C14.2412 25.533 14.4634 25.413 14.6375 25.2375L16.4 23.475L22.5875 29.6625C22.8252 29.8937 23.1434 30.0237 23.475 30.025C23.8062 30.0214 24.1235 29.8918 24.3625 29.6625L29.6625 24.3625C29.8957 24.1261 30.026 23.8071 30.025 23.475C30.0266 23.3104 29.9954 23.1471 29.9332 22.9947C29.8709 22.8423 29.7789 22.7039 29.6625 22.5875ZM23.475 27.0125L17.2875 20.825C17.1721 20.7064 17.0341 20.6122 16.8817 20.5478C16.7292 20.4834 16.5655 20.4501 16.4 20.45C16.0662 20.4528 15.7471 20.5876 15.5125 20.825L15 21.3375V15H21.3375L20.825 15.5125C20.5884 15.7477 20.4537 16.0664 20.45 16.4C20.4507 16.5654 20.4842 16.729 20.5486 16.8813C20.6129 17.0337 20.7069 17.1717 20.825 17.2875L27.0125 23.475L23.475 27.0125Z" fill="white"/>
<path d="M22.5 36.25C22.5 35.9185 22.3683 35.6005 22.1339 35.3661C21.8995 35.1317 21.5815 35 21.25 35H12.5V32.5C12.5 32.2528 12.4266 32.0112 12.2893 31.8057C12.1519 31.6001 11.9567 31.44 11.7283 31.3454C11.5 31.2508 11.2487 31.226 11.0062 31.2742C10.7638 31.3225 10.5411 31.4415 10.3663 31.6162L2.86626 39.1162C2.63192 39.3506 2.50027 39.6685 2.50027 40C2.50027 40.3314 2.63192 40.6493 2.86626 40.8837L10.3663 48.3837C10.6006 48.6182 10.9185 48.7499 11.25 48.75C11.4143 48.7505 11.5771 48.7182 11.7288 48.655C11.9571 48.5603 12.1523 48.4 12.2896 48.1944C12.4268 47.9888 12.5001 47.7472 12.5 47.5V45H21.25C21.5815 45 21.8995 44.8683 22.1339 44.6339C22.3683 44.3994 22.5 44.0815 22.5 43.75V36.25ZM20 42.5H11.25C10.9185 42.5 10.6005 42.6317 10.3661 42.8661C10.1317 43.1005 10 43.4184 10 43.75V44.4825L5.51751 40L10 35.5175V36.25C10 36.5815 10.1317 36.8994 10.3661 37.1339C10.6005 37.3683 10.9185 37.5 11.25 37.5H20V42.5Z" fill="white"/>
<path d="M55.6438 29.66C55.8782 29.8943 56.1961 30.026 56.5275 30.026C56.859 30.026 57.1769 29.8943 57.4113 29.66L63.5988 23.4725L65.3663 25.24C65.5411 25.4148 65.7638 25.5338 66.0062 25.582C66.2487 25.6302 66.5 25.6054 66.7283 25.5108C66.9567 25.4163 67.1519 25.2561 67.2893 25.0506C67.4266 24.8451 67.5 24.6034 67.5 24.3562V13.75C67.5 13.4185 67.3683 13.1005 67.1339 12.8661C66.8995 12.6317 66.5815 12.5 66.25 12.5H55.6438C55.3966 12.5001 55.155 12.5734 54.9494 12.7107C54.7439 12.8481 54.5838 13.0433 54.4892 13.2717C54.3946 13.5001 54.3698 13.7513 54.418 13.9938C54.4662 14.2362 54.5852 14.4589 54.76 14.6337L56.5275 16.4012L50.34 22.5887C50.1057 22.8232 49.974 23.141 49.974 23.4725C49.974 23.804 50.1057 24.1218 50.34 24.3562L55.6438 29.66ZM59.1788 17.285C59.4131 17.0506 59.5447 16.7327 59.5447 16.4012C59.5447 16.0698 59.4131 15.7519 59.1788 15.5175L58.6613 15H65V21.3387L64.4825 20.8212C64.2481 20.5869 63.9302 20.4553 63.5988 20.4553C63.2673 20.4553 62.9494 20.5869 62.715 20.8212L56.5275 27.0075L52.9913 23.4725L59.1788 17.285Z" fill="white"/>
<path d="M77.1338 39.1162L69.6338 31.6162C69.4589 31.4415 69.2362 31.3225 68.9938 31.2742C68.7513 31.226 68.5001 31.2508 68.2717 31.3454C68.0433 31.44 67.8481 31.6001 67.7107 31.8057C67.5734 32.0112 67.5001 32.2528 67.5 32.5V35H58.75C58.4185 35 58.1005 35.1317 57.8661 35.3661C57.6317 35.6005 57.5 35.9185 57.5 36.25V43.75C57.5 44.0815 57.6317 44.3994 57.8661 44.6339C58.1005 44.8683 58.4185 45 58.75 45H67.5V47.5C67.4999 47.7472 67.5732 47.9888 67.7105 48.1944C67.8477 48.4 68.0429 48.5603 68.2713 48.655C68.4229 48.7182 68.5857 48.7505 68.75 48.75C69.0815 48.7499 69.3994 48.6182 69.6338 48.3837L77.1338 40.8837C77.3681 40.6493 77.4997 40.3314 77.4997 40C77.4997 39.6685 77.3681 39.3506 77.1338 39.1162ZM70 44.4825V43.75C70 43.4184 69.8683 43.1005 69.6339 42.8661C69.3995 42.6317 69.0815 42.5 68.75 42.5H60V37.5H68.75C69.0815 37.5 69.3995 37.3683 69.6339 37.1339C69.8683 36.8994 70 36.5815 70 36.25V35.5175L74.4825 40L70 44.4825Z" fill="white"/>
</svg>
