<svg width="80" height="80" viewBox="0 0 80 80" fill="none" xmlns="http://www.w3.org/2000/svg">
<path d="M80 17.1875C80 15.0289 78.5328 13.2073 76.5436 12.6652C76.7567 12.1302 76.875 11.5477 76.875 10.9375C76.875 8.77891 75.4078 6.95734 73.4186 6.41516C73.6317 5.88016 73.75 5.29766 73.75 4.6875C73.75 2.10281 71.6472 0 69.0625 0H52.2188C48.7195 0 45.1842 0.834063 41.9886 2.415L40.5686 3.125H23.4375C22.8275 3.125 22.2448 3.24344 21.7098 3.45641C21.1677 1.46719 19.3461 0 17.1875 0C15.0289 0 13.2073 1.46719 12.6652 3.45641C12.1302 3.24344 11.5475 3.125 10.9375 3.125C8.77891 3.125 6.95734 4.59219 6.41516 6.58141C5.88016 6.36844 5.2975 6.25 4.6875 6.25C2.10281 6.25 0 8.35281 0 10.9375V27.7812C0 34.3673 2.83375 38.6716 3.125 39.4314V56.5625C3.125 57.1725 3.24344 57.7552 3.45641 58.2902C1.46719 58.8323 0 60.6539 0 62.8125C0 64.9711 1.46719 66.7927 3.45641 67.3348C3.24344 67.8698 3.125 68.4525 3.125 69.0625C3.125 71.2211 4.59219 73.0427 6.58141 73.5848C6.36844 74.1198 6.25 74.7025 6.25 75.3125C6.25 77.8972 8.35281 80 10.9375 80H14.703C15.5659 80 16.2655 79.3005 16.2655 78.4375C16.2655 77.5745 15.5659 76.875 14.703 76.875H10.9375C10.0759 76.875 9.375 76.1741 9.375 75.3125C9.375 74.4509 10.0759 73.75 10.9375 73.75H14.0625C14.9255 73.75 15.625 73.0505 15.625 72.1875C15.625 71.3245 14.9255 70.625 14.0625 70.625C11.8766 70.625 9.99844 70.625 7.8125 70.625C6.95094 70.625 6.25 69.9241 6.25 69.0625C6.25 68.2009 6.95094 67.5 7.8125 67.5H14.0625C14.9255 67.5 15.625 66.8005 15.625 65.9375C15.625 65.0745 14.9255 64.375 14.0625 64.375C12.6406 64.375 7.15188 64.375 4.6875 64.375C3.82594 64.375 3.125 63.6741 3.125 62.8125C3.125 61.9509 3.82594 61.25 4.6875 61.25H14.0625C14.9255 61.25 15.625 60.5505 15.625 59.6875C15.625 58.8245 14.9255 58.125 14.0625 58.125H7.8125C6.95094 58.125 6.25 57.4241 6.25 56.5625C6.25 55.7009 6.95094 55 7.8125 55H23.4375C24.3005 55 25 54.3005 25 53.4375V51.875H28.9375C32.6731 51.875 36.0164 53.9372 37.6627 57.2567C37.9266 57.7886 38.4689 58.125 39.0625 58.125H51.875V72.1875C51.875 72.7353 51.9703 73.2609 52.1437 73.75H42.1875C41.9448 73.75 41.7056 73.8064 41.4888 73.915L39.7445 74.787C36.9836 76.153 33.9273 76.875 30.9062 76.875H28.7347C27.8717 76.875 27.1722 77.5745 27.1722 78.4375C27.1722 79.3005 27.8717 80 28.7347 80H30.9062C34.4055 80 37.9408 79.1659 41.1362 77.585L42.5564 76.875H56.5625C57.1725 76.875 57.7552 76.7566 58.2902 76.5436C58.8325 78.5328 60.6539 80 62.8125 80C64.9711 80 66.7927 78.5328 67.3348 76.5436C67.87 76.7566 68.4525 76.875 69.0625 76.875C71.2211 76.875 73.0427 75.4078 73.5848 73.4186C74.12 73.6316 74.7025 73.75 75.3125 73.75C77.8972 73.75 80 71.6472 80 69.0625V50.3125C80 50.075 79.9455 49.8509 79.8508 49.6494C79.5464 47.01 78.7792 44.4023 77.585 41.9888L76.875 40.5688V23.4375C76.875 22.8275 76.7566 22.2448 76.5436 21.7098C78.533 21.1677 80 19.3463 80 17.1875ZM21.875 51.875H7.8125C7.26469 51.875 6.73906 51.9703 6.25 52.1437V39.0625C6.25 38.82 6.19359 38.5808 6.085 38.3638C5.72984 37.4566 3.125 33.6264 3.125 27.7812V10.9375C3.125 10.0759 3.82594 9.375 4.6875 9.375C5.54906 9.375 6.25 10.0759 6.25 10.9375V14.0625C6.25 14.9255 6.94953 15.625 7.8125 15.625C8.67547 15.625 9.375 14.9255 9.375 14.0625V7.8125C9.375 6.95094 10.0759 6.25 10.9375 6.25C11.7991 6.25 12.5 6.95094 12.5 7.8125V14.0625C12.5 14.9255 13.1995 15.625 14.0625 15.625C14.9255 15.625 15.625 14.9255 15.625 14.0625C15.625 12.6406 15.625 7.15188 15.625 4.6875C15.625 3.82594 16.3259 3.125 17.1875 3.125C18.0491 3.125 18.75 3.82594 18.75 4.6875V14.0625C18.75 14.9255 19.4495 15.625 20.3125 15.625C21.1755 15.625 21.875 14.9255 21.875 14.0625V7.8125C21.875 6.95094 22.5759 6.25 23.4375 6.25C24.2991 6.25 25 6.95094 25 7.8125V23.4375C25 24.3005 25.6995 25 26.5625 25H28.125V28.9375C28.125 32.6164 26.0125 36.0412 22.7433 37.6627C22.2114 37.9266 21.875 38.4689 21.875 39.0625V51.875ZM28.9375 48.75H25V39.99C28.8791 37.6847 31.25 33.5348 31.25 28.9375V25H40.0102C42.3153 28.8791 46.465 31.25 51.0625 31.25H55V40.01C51.1209 42.3153 48.75 46.465 48.75 51.0625V55H39.99C37.6847 51.1211 33.535 48.75 28.9375 48.75ZM76.875 69.0625C76.875 69.9241 76.1741 70.625 75.3125 70.625C74.4509 70.625 73.75 69.9241 73.75 69.0625V65.9375C73.75 65.0745 73.0503 64.375 72.1875 64.375C71.3247 64.375 70.625 65.0745 70.625 65.9375V72.1875C70.625 73.0491 69.9241 73.75 69.0625 73.75C68.2009 73.75 67.5 73.0491 67.5 72.1875V65.9375C67.5 65.0745 66.8003 64.375 65.9375 64.375C65.0747 64.375 64.375 65.0745 64.375 65.9375V75.3125C64.375 76.1741 63.6741 76.875 62.8125 76.875C61.9509 76.875 61.25 76.1741 61.25 75.3125V65.9375C61.25 65.0745 60.5503 64.375 59.6875 64.375C58.8247 64.375 58.125 65.0745 58.125 65.9375V72.1875C58.125 73.0491 57.4241 73.75 56.5625 73.75C55.7009 73.75 55 73.0491 55 72.1875V56.5625C55 55.6995 54.3003 55 53.4375 55H51.875V51.0625C51.875 47.3269 53.9372 43.9836 57.2567 42.3373C57.7886 42.0736 58.125 41.5312 58.125 40.9375V28.125H72.1875C72.7353 28.125 73.2609 28.0297 73.75 27.8563V40.9375C73.75 41.18 73.8064 41.4192 73.915 41.6362L74.787 43.3805C76.153 46.1414 76.875 49.1977 76.875 52.2188V69.0625ZM75.3125 18.75H65.9375C65.0747 18.75 64.375 19.4495 64.375 20.3125C64.375 21.1755 65.0747 21.875 65.9375 21.875H72.1875C73.0491 21.875 73.75 22.5759 73.75 23.4375C73.75 24.2991 73.0491 25 72.1875 25H56.5625C55.6997 25 55 25.6995 55 26.5625V28.125H51.0625C47.3834 28.125 43.9586 26.0125 42.3373 22.7433C42.0736 22.2116 41.5312 21.875 40.9375 21.875H28.125V7.8125C28.125 7.26469 28.0297 6.73906 27.8563 6.25H40.9375C41.1802 6.25 41.4194 6.19359 41.6364 6.085C42.5425 5.73047 46.3734 3.125 52.2188 3.125H69.0625C69.9241 3.125 70.625 3.82594 70.625 4.6875C70.625 5.54906 69.9241 6.25 69.0625 6.25H65.9375C65.0747 6.25 64.375 6.94953 64.375 7.8125C64.375 8.67547 65.0747 9.375 65.9375 9.375H72.1875C73.0491 9.375 73.75 10.0759 73.75 10.9375C73.75 11.7991 73.0491 12.5 72.1875 12.5H65.9375C65.0747 12.5 64.375 13.1995 64.375 14.0625C64.375 14.9255 65.0747 15.625 65.9375 15.625H75.3125C76.1741 15.625 76.875 16.3259 76.875 17.1875C76.875 18.0491 76.1741 18.75 75.3125 18.75Z" fill="white"/>
<path d="M21.875 79.5312C22.7379 79.5312 23.4375 78.8317 23.4375 77.9688C23.4375 77.1058 22.7379 76.4062 21.875 76.4062C21.0121 76.4062 20.3125 77.1058 20.3125 77.9688C20.3125 78.8317 21.0121 79.5312 21.875 79.5312Z" fill="white"/>
</svg>
