<svg width="80" height="80" viewBox="0 0 80 80" fill="none" xmlns="http://www.w3.org/2000/svg">
<g clip-path="url(#clip0)">
<path d="M17.7296 33.3208C16.3543 33.3208 15.2355 34.4396 15.2355 35.8148V40.5457C15.2355 41.921 16.3543 43.0397 17.7296 43.0397H19.6777C19.8584 43.5552 20.0685 44.0613 20.3065 44.5548L18.9281 45.933C17.9534 46.9077 17.9533 48.4855 18.9281 49.4603L22.2733 52.8055C23.2458 53.7781 24.8281 53.7778 25.8004 52.8055L27.1788 51.4271C27.6733 51.6657 28.1771 51.8747 28.6939 52.0559V54.004C28.6939 55.3793 29.8127 56.498 31.1879 56.498H35.9187C37.2938 56.498 38.4126 55.3792 38.4126 54.004V52.0559C38.9283 51.8752 39.4344 51.6651 39.9278 51.4273L41.3059 52.8055C42.2787 53.7779 43.8608 53.7776 44.8333 52.8055L48.1784 49.4603C49.1509 48.4878 49.1509 46.9055 48.1784 45.933L46.8001 44.5548C47.038 44.0615 47.2479 43.5552 47.4287 43.0397H49.3769C50.7523 43.0397 51.8709 41.9209 51.8709 40.5457V35.8148C51.8709 34.4395 50.7521 33.3208 49.3769 33.3208H47.4287C47.2479 32.8053 47.038 32.2992 46.8001 31.8057L48.1784 30.4275C49.1509 29.455 49.1509 27.8727 48.1784 26.9002L44.8333 23.5551C43.8608 22.5829 42.2786 22.5826 41.3061 23.5551L39.9276 24.9334C39.4342 24.6954 38.9282 24.4855 38.4125 24.3048V22.3565C38.4125 20.9812 37.2937 19.8625 35.9185 19.8625H31.1877C29.8126 19.8625 28.6938 20.9814 28.6938 22.3565V24.3048C28.1782 24.4855 27.6721 24.6954 27.1786 24.9334L25.8003 23.5551C24.8278 22.5827 23.2454 22.5827 22.2731 23.5551L18.928 26.9002C17.9555 27.8727 17.9555 29.455 18.928 30.4274L20.3062 31.8057C20.0683 32.2991 19.8583 32.8053 19.6776 33.3208H17.7296ZM20.5484 35.6989C21.0809 35.6989 21.5486 35.3449 21.6929 34.8322C21.9538 33.9057 22.3264 33.0077 22.8003 32.1629C23.0609 31.6984 22.9807 31.117 22.604 30.7405L20.6094 28.7457C20.5643 28.7006 20.5643 28.627 20.6094 28.5818L23.9546 25.2367C23.9998 25.1912 24.0735 25.1915 24.1187 25.2367L26.1132 27.2311C26.4898 27.6076 27.071 27.6878 27.5356 27.4273C28.3805 26.9535 29.2786 26.5809 30.2051 26.32C30.7177 26.1757 31.0718 25.7082 31.0718 25.1755V22.3565C31.0718 22.2926 31.1238 22.2406 31.1877 22.2406H35.9185C35.9824 22.2406 36.0344 22.2926 36.0344 22.3565V25.1755C36.0344 25.708 36.3884 26.1757 36.9011 26.32C37.8276 26.5809 38.7257 26.9535 39.5706 27.4273C40.0351 27.6878 40.6161 27.6078 40.9928 27.2311L42.9876 25.2367C43.0327 25.1913 43.1063 25.1912 43.1515 25.2367L46.4966 28.5818C46.542 28.627 46.542 28.7006 46.4966 28.7459L44.5022 30.7405C44.1257 31.117 44.0455 31.6982 44.3061 32.1629C44.7798 33.0076 45.1524 33.9057 45.4133 34.8322C45.5576 35.3447 46.0251 35.6989 46.5578 35.6989H49.3768C49.4407 35.6989 49.4927 35.7509 49.4927 35.8148V40.5457C49.4927 40.6096 49.4407 40.6616 49.3768 40.6616H46.5578C46.0253 40.6616 45.5576 41.0156 45.4133 41.5283C45.1524 42.4548 44.7798 43.353 44.306 44.198C44.0455 44.6625 44.1257 45.2437 44.5022 45.6204L46.4966 47.6148C46.542 47.66 46.542 47.7335 46.4966 47.7787L43.1515 51.1238C43.1063 51.169 43.0329 51.169 42.9874 51.1238L40.9928 49.1294C40.6161 48.7528 40.0349 48.6727 39.5704 48.9333C38.7257 49.407 37.8278 49.7798 36.9011 50.0407C36.3886 50.185 36.0344 50.6525 36.0344 51.1852V54.004C36.0344 54.0679 35.9824 54.1199 35.9185 54.1199H31.1877C31.1238 54.1199 31.0718 54.0679 31.0718 54.004V51.1852C31.0718 50.6528 30.7178 50.1851 30.2053 50.0407C29.8398 49.9378 29.4749 49.8161 29.1207 49.6794C27.5975 49.0909 27.5261 48.7813 26.9544 48.7813C26.6466 48.7813 26.3422 48.9007 26.1132 49.1294L24.1187 51.1238C24.0735 51.169 23.9998 51.169 23.9546 51.1238L20.6094 47.7787C20.5869 47.7562 20.5755 47.7286 20.5755 47.6966C20.5755 47.6649 20.5869 47.6371 20.6094 47.6146L22.604 45.6202C22.9807 45.2435 23.0609 44.6623 22.8003 44.1976C22.3262 43.3526 21.9537 42.4545 21.6929 41.5282C21.5485 41.0156 21.0809 40.6615 20.5484 40.6615H17.7296C17.6655 40.6615 17.6135 40.6095 17.6135 40.5456V35.8146C17.6135 35.7507 17.6655 35.6987 17.7296 35.6987H20.5484V35.6989Z" fill="white"/>
<path d="M33.5533 45.0477C37.3398 45.0477 40.4205 41.967 40.4205 38.1806C40.4205 34.3939 37.3398 31.3134 33.5533 31.3134C29.7666 31.3134 26.6861 34.3941 26.6861 38.1806C26.6861 41.967 29.7666 45.0477 33.5533 45.0477ZM33.5533 33.6913C36.0286 33.6913 38.0425 35.7052 38.0425 38.1804C38.0425 40.6557 36.0286 42.6694 33.5533 42.6694C31.0779 42.6694 29.0642 40.6557 29.0642 38.1804C29.0642 35.7052 31.0779 33.6913 33.5533 33.6913Z" fill="white"/>
<path d="M64.9192 28.4214C72.7551 28.4214 79.1301 22.0466 79.1301 14.2107C79.1301 12.4451 78.81 10.7218 78.1789 9.08851C77.942 8.47623 77.2536 8.17168 76.6411 8.40806C76.0286 8.64492 75.7239 9.33329 75.9606 9.94588C76.4858 11.3044 76.752 12.7393 76.752 14.2106C76.752 20.735 71.444 26.0432 64.9192 26.0432C58.1983 26.0432 52.7514 20.4032 53.1032 13.5881C53.4259 7.37075 58.5915 2.37807 64.9192 2.37807C68.0396 2.37807 70.9838 3.58201 73.2098 5.76793C73.6781 6.22769 74.431 6.22135 74.8913 5.75255C75.3513 5.28407 75.3444 4.53117 74.8759 4.0711C72.2028 1.44587 68.6666 0 64.9192 0C59.4777 0 54.7417 3.07484 52.3549 7.57764H3.39113C2.00091 7.57764 0.870056 8.70865 0.870056 10.0989V13.8732C0.870056 15.2634 2.00107 16.3943 3.39113 16.3943H4.11295V47.9546C4.11295 48.6114 4.64532 49.1436 5.30199 49.1436C5.95865 49.1436 6.49102 48.6114 6.49102 47.9546V16.3943H50.8764C51.7041 21.7386 55.4775 26.1345 60.6156 27.7554V59.9665H6.49102V53.5034C6.49102 52.8466 5.95865 52.3144 5.30199 52.3144C4.64532 52.3144 4.11295 52.8466 4.11295 53.5034V59.9665H3.39113C2.00091 59.9665 0.870056 61.0975 0.870056 62.4876V66.2619C0.870056 67.6521 2.00107 68.783 3.39113 68.783H32.3643V71.461C30.5404 71.9797 29.2005 73.6594 29.2005 75.6473C29.2005 78.0474 31.1532 80 33.5533 80C35.9534 80 37.9061 78.0474 37.9061 75.6473C37.9061 73.6594 36.5661 71.9797 34.7423 71.461V68.783H63.7155C65.1057 68.783 66.2365 67.652 66.2365 66.2619V62.4876C66.2365 61.0974 65.1055 59.9665 63.7155 59.9665H62.9935V28.2905C63.6235 28.3762 64.2662 28.4214 64.9192 28.4214ZM35.528 75.6473C35.528 76.7362 34.6423 77.6219 33.5533 77.6219C32.4643 77.6219 31.5785 76.7362 31.5785 75.6473C31.5785 74.5585 32.4645 73.6726 33.5533 73.6726C34.6421 73.6726 35.528 74.5585 35.528 75.6473ZM63.8586 62.4876C63.8586 66.5065 63.9133 66.4049 63.7156 66.4049H3.39113C3.31218 66.4049 3.24813 66.3407 3.24813 66.2619V62.4876C3.24813 62.4088 3.31233 62.3446 3.39113 62.3446H63.7156C63.7944 62.3446 63.8586 62.4088 63.8586 62.4876ZM3.39113 14.0162C3.31218 14.0162 3.24813 13.9521 3.24813 13.8732V10.0989C3.24813 10.0199 3.31233 9.95571 3.39113 9.95571H51.3588C50.9579 11.2267 50.7295 12.6226 50.7099 14.0162C47.1207 14.0162 4.33585 14.0162 3.39113 14.0162Z" fill="white"/>
<path d="M67.97 10.6691C67.97 11.3259 68.5022 11.8582 69.159 11.8582C69.8158 11.8582 70.3481 11.3259 70.3481 10.6691C70.3481 8.32482 68.5344 6.39747 66.2365 6.21341V5.56403C66.2365 4.90721 65.7043 4.375 65.0475 4.375C64.3907 4.375 63.8585 4.90721 63.8585 5.56403V6.21341C61.5608 6.39747 59.7469 8.32482 59.7469 10.6691V10.8059C59.7469 13.1502 61.5606 15.0776 63.8585 15.2616V19.5682C62.8755 19.3966 62.125 18.5393 62.125 17.5078C62.125 16.851 61.5928 16.3188 60.936 16.3188C60.2792 16.3188 59.7469 16.851 59.7469 17.5078C59.7469 19.8521 61.5606 21.7795 63.8585 21.9635V22.8574C63.8585 23.5142 64.3907 24.0464 65.0475 24.0464C65.7043 24.0464 66.2365 23.5142 66.2365 22.8574V21.9635C68.5342 21.7793 70.3481 19.852 70.3481 17.5077V17.371C70.3481 15.0267 68.5344 13.0993 66.2365 12.9153V8.60876C67.2196 8.78029 67.97 9.63783 67.97 10.6691ZM62.1252 10.8059V10.6691C62.1252 9.63783 62.8755 8.78029 63.8586 8.60876V12.8661C62.8755 12.6948 62.1252 11.8374 62.1252 10.8059ZM67.97 17.371V17.5077C67.97 18.5391 67.2196 19.3966 66.2365 19.5682V15.3108C67.2196 15.4822 67.97 16.3397 67.97 17.371Z" fill="white"/>
</g>
<defs>
<clipPath id="clip0">
<rect width="80" height="80" fill="white"/>
</clipPath>
</defs>
</svg>
